# xmcd
#
# Track frame offsets:
#	150
#	29781
#	51458
#	66540
#	89731
#	109447
#	130135
#	154286
#	171980
#	196163
#	220951
#	234572
#	259556
#	280165
#	308307
#
# Disc length: 4587 seconds
#
# Revision: 0
# Processed by: cddbd v1.5.2PL0 Copyright (c) Steve Scherf et al.
# Submitted via: audiograbber 1.83.01
#
DISCID=e711e90f
DTITLE=Billy Paul and Bill Withers - The very best of CD 2
DYEAR=2002
DGENRE=Soul
TTITLE0=Your Song
TTITLE1=Me And Mrs Jones
TTITLE2=Without You
TTITLE3=Let Em'In
TTITLE4=People Power
TTITLE5=It's Too Late
TTITLE6=Am I Black Enough For You
TTITLE7=Ebony Woman
TTITLE8=Everything Must Change
TTITLE9=July July July
TTITLE10=Thank For Saving My life
TTITLE11=When Live Is New
TTITLE12=Mrs Robinson
TTITLE13=I See The Light
TTITLE14=Black Wonders Of The World
EXTD=
EXTT0=
EXTT1=
EXTT2=
EXTT3=
EXTT4=
EXTT5=
EXTT6=
EXTT7=
EXTT8=
EXTT9=
EXTT10=
EXTT11=
EXTT12=
EXTT13=
EXTT14=
PLAYORDER=
